<svg width="117" height="32" viewBox="0 0 117 32" fill="none" xmlns="http://www.w3.org/2000/svg">
<path d="M87.6021 6.25864C87.6753 6.25891 87.7478 6.24472 87.8155 6.21688C87.8832 6.18904 87.9448 6.14808 87.9967 6.09636C88.0487 6.04465 88.0899 5.98317 88.1182 5.91545C88.1464 5.84773 88.1611 5.77509 88.1614 5.70168V3.87136C88.1611 3.79794 88.1464 3.7253 88.1182 3.65758C88.0899 3.58986 88.0487 3.52838 87.9967 3.47666C87.9448 3.42494 87.8832 3.384 87.8155 3.35615C87.7478 3.32831 87.6753 3.31412 87.6021 3.31439C82.9738 3.31439 78.3441 3.31439 73.713 3.31439V15.5303H70.2583V0.0078125H88.2501C89.0454 0.0078125 89.8081 0.324771 90.3705 0.888961C90.9328 1.45315 91.2488 2.21836 91.2488 3.01624V6.0723C91.2488 6.87018 90.9328 7.63539 90.3705 8.19958C89.8081 8.76377 89.0454 9.08073 88.2501 9.08073H82.5954L91.3189 15.5241H85.4641L73.7006 6.25864H87.6021Z" fill="#C7001F"/>
<path d="M50.8073 3.31279H67.4721V7.15503e-07H49.7341C49.3404 -0.000271922 48.9504 0.0773728 48.5866 0.228489C48.2228 0.379606 47.8922 0.601229 47.6139 0.880669C47.3356 1.16011 47.1149 1.49188 46.9645 1.85699C46.8141 2.2221 46.737 2.61338 46.7376 3.00843V12.5079C46.737 12.9029 46.8141 13.2942 46.9645 13.6593C47.1149 14.0244 47.3356 14.3562 47.6139 14.6356C47.8922 14.9151 48.2228 15.1367 48.5866 15.2878C48.9504 15.4389 49.3404 15.5166 49.7341 15.5163H67.4721V12.2221H50.8073C50.8073 12.2221 50.248 12.2221 50.248 11.5575V9.41869H65.8892V6.1059H50.248V3.97535C50.248 3.3128 50.8073 3.31279 50.8073 3.31279" fill="#C7001F"/>
<path d="M26.6949 0.0078125V5.86939H40.4973V0.0078125H43.9479V15.5241H40.4973V9.53002H26.6949V15.5241H23.2463V0.0078125H26.6949Z" fill="#C7001F"/>
<path d="M0 12.5157C0 13.3136 0.315927 14.0788 0.87828 14.643C1.44063 15.2071 2.20335 15.5241 2.99864 15.5241H20.458V11.9297H4.06972C3.92175 11.9292 3.78003 11.8698 3.67559 11.7646C3.57115 11.6595 3.51251 11.5171 3.51251 11.3686V4.16123C3.51224 4.08764 3.52645 4.01472 3.55433 3.94666C3.58221 3.87859 3.62321 3.81672 3.67498 3.76459C3.72675 3.71246 3.78827 3.6711 3.85601 3.64288C3.92375 3.61465 3.99638 3.60012 4.06972 3.60012H20.458V0.0078125H2.99864C2.20335 0.0078125 1.44063 0.324771 0.87828 0.888961C0.315927 1.45315 0 2.21836 0 3.01624V12.5157Z" fill="#C7001F"/>
<path d="M104.578 7.2202L111.94 0.0107422H117L106.58 10.1334V15.525H102.319V10.1603L91.8635 0.0107422H96.9362L104.578 7.2202Z" fill="#C7001F"/>
<path d="M2.56977 24.9236C2.23269 24.9236 1.95202 24.9298 1.72776 24.9422C1.50487 24.9567 1.29437 24.9774 1.09625 25.0023V24.3501C1.32391 24.385 1.55335 24.4071 1.78348 24.4163C2.02907 24.4163 2.34276 24.4308 2.72455 24.4308V22.2402C2.72455 22.0539 2.72455 21.8924 2.70804 21.7599C2.69619 21.6241 2.67201 21.4896 2.63581 21.3582C2.77615 21.3706 2.91854 21.381 3.06507 21.3872C3.18951 21.3935 3.31418 21.3935 3.43861 21.3872C3.53561 21.3872 3.5872 21.3872 3.59339 21.4265C3.59958 21.4659 3.5645 21.5052 3.48401 21.559C3.40353 21.6129 3.35193 21.793 3.35193 22.0808V24.4308C3.63673 24.4308 3.88232 24.4308 4.08869 24.4101C4.29507 24.3894 4.49113 24.377 4.68306 24.3501V25.0023C4.49113 24.9774 4.29507 24.9567 4.08869 24.9422C3.88232 24.9277 3.63673 24.9236 3.35193 24.9236V25.404C3.88025 25.7877 4.379 26.1797 4.84816 26.58L4.40858 27.0914C4.25379 26.9051 4.08663 26.7167 3.90708 26.5241C3.72754 26.3315 3.5418 26.1514 3.35193 25.9775V28.7892C3.35193 29.0377 3.35193 29.3131 3.38495 29.6174C3.41797 29.9218 3.43655 30.2199 3.47163 30.5222H2.61517C2.65026 30.2199 2.67915 29.9197 2.69566 29.6174C2.71217 29.3151 2.72455 29.0418 2.72455 28.7892V25.9029C2.56378 26.3302 2.37274 26.7454 2.15289 27.1452C1.94912 27.5033 1.72447 27.849 1.48011 28.1805C1.27318 28.0282 1.03098 27.9313 0.776367 27.8989C1.15585 27.5342 1.48548 27.1206 1.75665 26.669C2.08873 26.1179 2.36131 25.5327 2.56977 24.9236V24.9236ZM1.90937 24.0084C1.80337 23.7665 1.6763 23.5344 1.52964 23.3148C1.37898 23.0891 1.22007 22.8676 1.05085 22.6523L1.55853 22.3707C1.70138 22.5404 1.83371 22.7188 1.95477 22.9049C2.08685 23.1119 2.23544 23.3666 2.40467 23.6875L1.90937 24.0084ZM4.95754 22.5032C5.03802 22.5301 5.07723 22.5674 5.0731 22.6171C5.06898 22.6668 5.01738 22.7102 4.9142 22.7434C4.88128 22.7641 4.85021 22.7877 4.82133 22.8138C4.76046 22.8692 4.70642 22.9318 4.66035 23.0001C4.57562 23.1181 4.49709 23.2404 4.42509 23.3666C4.33222 23.5198 4.21871 23.7165 4.08869 23.9587C4.01769 23.9018 3.93739 23.8577 3.85136 23.8283C3.78326 23.8076 3.69658 23.7848 3.59339 23.7579C3.76041 23.5201 3.90613 23.2679 4.02885 23.0043C4.1448 22.7361 4.23935 22.4592 4.31158 22.1761C4.51612 22.3053 4.7324 22.4148 4.95754 22.5032ZM7.43404 22.7931C7.14099 22.7931 6.88921 22.7931 6.68077 22.7931H6.11324C5.94401 22.7931 5.78716 22.8034 5.64064 22.8138L5.17836 22.849V22.2672L5.64064 22.3024C5.78716 22.3127 5.94401 22.3189 6.11324 22.321L6.68077 22.3313C6.88852 22.3313 7.13617 22.3313 7.42372 22.3313C7.42372 22.1574 7.42372 21.969 7.39483 21.7682C7.36594 21.5673 7.35975 21.4203 7.3453 21.3271L7.75805 21.3623C7.886 21.3727 8.03047 21.3768 8.19144 21.3768C8.28844 21.3768 8.34003 21.3955 8.35241 21.4327C8.36479 21.47 8.3359 21.5114 8.26986 21.557C8.21525 21.6054 8.17279 21.6661 8.1459 21.7341C8.11901 21.8021 8.10845 21.8755 8.11508 21.9483V22.3313C8.43152 22.3313 8.69775 22.3313 8.91375 22.3313L9.49573 22.321C9.66909 22.321 9.82593 22.321 9.9704 22.3024L10.4368 22.2672V22.849L9.9704 22.8138C9.82593 22.8138 9.66909 22.7972 9.49573 22.7931H8.91375C8.69775 22.7931 8.43152 22.7931 8.11508 22.7931V23.5364H8.76516C8.94058 23.5364 9.09949 23.5364 9.24395 23.526L9.65671 23.5115C9.78466 23.5115 9.92912 23.5032 10.0901 23.4867V24.0188C9.92912 24.0188 9.78466 24.0064 9.65671 23.9981L9.24395 23.9836L8.76516 23.9732H8.11508V24.7352H9.10568C9.36984 24.7352 9.60098 24.7352 9.7991 24.7352L10.3501 24.7145C10.518 24.7145 10.712 24.7041 10.9321 24.6834V25.2362C10.7051 25.2362 10.5008 25.2238 10.313 25.2155L9.72481 25.201H8.96535H7.8406H6.91604L6.2123 25.2114C6.00592 25.2114 5.79955 25.2114 5.60762 25.2321C5.41569 25.2528 5.20725 25.2507 4.98849 25.257V24.6834C5.19487 24.6979 5.38267 24.7083 5.55602 24.7145L6.08847 24.7352C6.27215 24.7352 6.47233 24.7352 6.68902 24.7352H7.4423V23.9732C7.0605 23.9732 6.73856 23.9857 6.4744 23.9939C6.21023 24.0022 5.93369 24.0105 5.64889 24.0229V23.4908C5.78717 23.4908 5.92544 23.5032 6.06164 23.5053L6.4744 23.5198C6.61267 23.5198 6.76126 23.5322 6.92017 23.5364H7.4423L7.43404 22.7931ZM6.28866 30.458H5.54983C5.58698 30.1909 5.61175 29.9342 5.62619 29.6899C5.64064 29.4456 5.64889 29.224 5.64889 29.0232V26.9009C5.64889 26.6607 5.64889 26.4454 5.62619 26.2529C5.60349 26.0603 5.59524 25.8967 5.57253 25.7559L6.10085 25.7911C6.26183 25.8015 6.42693 25.8077 6.59616 25.8118L7.1348 25.8222H7.7952H8.45973L9.00456 25.8118C9.17379 25.8118 9.33889 25.8015 9.49986 25.7911L10.0282 25.7559C10.0137 25.963 10.0034 26.17 9.99516 26.3647C9.98691 26.5593 9.99516 26.7374 9.99516 26.9113V29.5325C9.99891 29.6763 9.98223 29.82 9.94563 29.959C9.91075 30.071 9.83768 30.167 9.73926 30.2303C9.60953 30.3121 9.46254 30.3625 9.30999 30.3773C9.06351 30.4072 8.81529 30.4203 8.56704 30.4166C8.56069 30.3083 8.54411 30.2009 8.51751 30.0957C8.47998 29.9752 8.42653 29.8603 8.3586 29.7541C8.52137 29.7907 8.68604 29.8184 8.85184 29.8369C8.95017 29.8499 9.05014 29.8414 9.14489 29.812C9.17612 29.801 9.20481 29.7837 9.22927 29.7613C9.25373 29.7389 9.27346 29.7118 9.28729 29.6816C9.31561 29.6048 9.32892 29.5233 9.3265 29.4414V28.7188H6.28866V30.458ZM9.31619 26.2798H6.28866V27.0541H9.31619V26.2798ZM9.31619 27.4952H6.28866V28.2799H9.31619V27.4952Z" fill="white"/>
<path d="M15.3135 26.0071H15.9945C16.2298 26.0071 16.4527 26.0071 16.6652 25.9926C16.8778 25.9781 17.078 25.9802 17.2493 25.9781C17.4206 25.976 17.565 25.9781 17.662 25.9615V26.5226C17.5588 26.5226 17.4185 26.5102 17.2493 26.5081C17.0801 26.5061 16.8778 26.5081 16.6652 26.4916L15.9945 26.4771C15.7593 26.4771 15.5322 26.4771 15.3135 26.4771V26.7297C15.5033 26.8498 15.7077 26.9906 15.9326 27.1438C16.1576 27.297 16.3598 27.4668 16.5517 27.6345C16.7437 27.8022 16.9335 27.9596 17.0924 28.1066C17.2513 28.2536 17.369 28.3716 17.4495 28.4586L16.8778 28.9306C16.6637 28.6389 16.4299 28.3622 16.1782 28.1024C15.9061 27.8184 15.6181 27.5502 15.3155 27.2991V29.2288C15.3155 29.3282 15.3155 29.4358 15.3155 29.5601C15.3155 29.6843 15.3155 29.8002 15.3382 29.9203C15.3609 30.0404 15.3589 30.1543 15.3713 30.262C15.3836 30.3696 15.394 30.469 15.4084 30.5332H14.6304C14.6304 30.4669 14.6469 30.382 14.6572 30.2785C14.6675 30.175 14.6778 30.0715 14.6861 29.941C14.6944 29.8106 14.6985 29.6988 14.7026 29.5745C14.7067 29.4503 14.7026 29.3344 14.7026 29.2288V27.3508C14.5334 27.5579 14.3518 27.7836 14.1536 28.0072C13.9555 28.2308 13.7512 28.4544 13.5345 28.6718C13.3178 28.8892 13.1094 29.0983 12.8906 29.293C12.6719 29.4876 12.4572 29.6781 12.2529 29.8458C12.1646 29.7389 12.0626 29.6442 11.9496 29.5642C11.8381 29.4828 11.7184 29.4134 11.5925 29.3572C11.8561 29.1895 12.111 29.0085 12.3561 28.8147C12.6382 28.5938 12.9223 28.3557 13.2084 28.1004C13.4946 27.845 13.7698 27.5827 14.034 27.3136C14.2722 27.0731 14.4929 26.8157 14.6944 26.5433V26.4647H13.9411C13.6728 26.4647 13.4107 26.4647 13.1548 26.475L12.4449 26.4937C12.2385 26.4937 12.0569 26.5081 11.933 26.5144V25.9512C12.0569 25.9512 12.2282 25.9657 12.4449 25.9719L13.1548 25.9926C13.4107 25.9926 13.6728 26.0029 13.9411 26.0029H14.6944C14.6944 25.7338 14.6778 25.5288 14.6675 25.3818C14.6589 25.2512 14.6389 25.1217 14.6077 24.9946C14.7748 25.0298 14.9317 25.0547 15.0741 25.0712C15.1711 25.0857 15.2692 25.0905 15.3671 25.0857C15.4827 25.0733 15.5467 25.0857 15.5591 25.1458C15.5714 25.2058 15.5281 25.2596 15.4311 25.328C15.3899 25.3704 15.3582 25.4213 15.3382 25.477C15.3134 25.5432 15.3008 25.6134 15.3011 25.6841L15.3135 26.0071ZM17.8767 22.1601C17.9799 22.2264 18.0149 22.2823 17.986 22.3299C17.9571 22.3775 17.887 22.3941 17.7797 22.3796C17.7198 22.3796 17.6311 22.3692 17.5093 22.3692C17.3876 22.3692 17.2596 22.3692 17.1255 22.3796L16.7127 22.4044C16.5806 22.4148 16.4733 22.4272 16.3928 22.4396C16.108 22.4872 15.7737 22.5349 15.3919 22.5804C15.0101 22.626 14.6262 22.6715 14.2362 22.7109C13.8461 22.7502 13.4705 22.7875 13.1032 22.8165C12.7358 22.8454 12.4284 22.8682 12.1786 22.8827C12.1253 22.6191 11.9787 22.3838 11.7659 22.2202C12.2344 22.2326 12.7503 22.2202 13.3116 22.2036C13.873 22.187 14.4178 22.1394 14.9461 22.0794C15.4745 22.0193 15.9553 21.9468 16.3908 21.8723C16.7249 21.818 17.0509 21.7213 17.3607 21.5845C17.428 21.7057 17.5068 21.8201 17.596 21.9261C17.6773 22.0178 17.7719 22.0967 17.8767 22.1601V22.1601ZM13.4313 25.2327C13.3111 24.9332 13.1596 24.6472 12.9794 24.3797C12.7984 24.1078 12.591 23.8547 12.3602 23.6239L12.8886 23.332C13.1167 23.5771 13.3284 23.8372 13.5221 24.1105C13.7285 24.3962 13.8977 24.6695 14.0443 24.9387L13.4313 25.2327ZM15.07 24.7503C14.9699 24.4654 14.8485 24.1886 14.7067 23.9221C14.5661 23.6537 14.4047 23.3969 14.2238 23.1539L14.7728 22.9034C14.9622 23.1686 15.1352 23.4451 15.2908 23.7316C15.4229 23.9801 15.5508 24.2472 15.6746 24.535L15.07 24.7503ZM17.6455 23.3548C17.585 23.3889 17.5305 23.433 17.4845 23.4852C17.4088 23.5774 17.3398 23.675 17.2782 23.7772C17.1894 23.9097 17.0718 24.0919 16.9356 24.3196C16.7994 24.5474 16.6198 24.8435 16.4073 25.212C16.3373 25.127 16.244 25.0644 16.139 25.0319C16.0325 24.9991 15.9234 24.9756 15.8129 24.9615C15.9487 24.8109 16.0702 24.648 16.1761 24.4749C16.303 24.2745 16.4188 24.0671 16.5228 23.8538C16.6302 23.6467 16.7292 23.4397 16.7994 23.2326C16.8651 23.0723 16.9149 22.9058 16.948 22.7357C17.1181 22.9102 17.332 23.0354 17.5671 23.098C17.6909 23.1105 17.7549 23.1436 17.759 23.1974C17.7652 23.2575 17.726 23.3072 17.6455 23.3548ZM21.804 27.3819C21.9959 27.4896 21.9877 27.562 21.7834 27.6034C21.666 27.6355 21.5583 27.6959 21.4697 27.7794C21.2892 27.9308 21.1182 28.0933 20.9578 28.266C20.6854 28.5476 20.4295 28.794 20.186 29.0093C19.9513 29.2184 19.7038 29.4127 19.4451 29.5911C19.1848 29.7691 18.9147 29.9322 18.6361 30.0798C18.3493 30.2288 18.017 30.382 17.6682 30.5353C17.5193 30.2877 17.305 30.0864 17.0491 29.9535C17.9011 29.7558 18.703 29.3828 19.4038 28.8582C20.1119 28.3335 20.7071 27.6708 21.1539 26.9098C21.3004 27.0299 21.4222 27.1169 21.5213 27.1956C21.6203 27.2742 21.7173 27.3281 21.804 27.3819ZM21.4408 24.9221C21.3434 24.9346 21.2505 24.9708 21.1704 25.0277C21.0094 25.1412 20.857 25.2665 20.7143 25.4025C20.4653 25.6303 20.2307 25.8373 20.0106 26.0237C19.7898 26.2079 19.5731 26.3798 19.3605 26.5413C19.1479 26.7028 18.9333 26.8498 18.7166 26.9864C18.4999 27.1231 18.2708 27.2639 18.0294 27.4005C17.9548 27.2937 17.8682 27.1957 17.7714 27.1086C17.6632 27.0185 17.5431 26.9439 17.4144 26.8871C17.7651 26.7685 18.1021 26.6123 18.4194 26.4212C18.7642 26.2191 19.0939 25.9921 19.4059 25.7421C19.7029 25.5069 19.9791 25.2465 20.2314 24.9636C20.4414 24.7362 20.6141 24.477 20.7432 24.1954C20.8897 24.3176 21.0177 24.4128 21.1271 24.4873C21.241 24.5625 21.3588 24.6316 21.48 24.6944C21.5605 24.742 21.5955 24.7876 21.5852 24.8352C21.5749 24.8828 21.5109 24.9139 21.4408 24.9221ZM21.0672 22.069C20.9736 22.0988 20.8857 22.1443 20.8072 22.2036C20.675 22.3197 20.5553 22.4495 20.4502 22.5908C20.3263 22.7378 20.1757 22.8993 20.0003 23.0732C19.8248 23.2471 19.6288 23.4252 19.4162 23.6053C19.2037 23.7854 18.9808 23.9656 18.7496 24.1436C18.5185 24.3217 18.2894 24.4791 18.0624 24.6199C17.9843 24.5156 17.8919 24.4228 17.7879 24.3445C17.6788 24.2619 17.5603 24.1924 17.435 24.1374C17.8187 23.9406 18.1915 23.7228 18.5515 23.4852C18.8444 23.2891 19.1205 23.0689 19.377 22.8268C19.5995 22.6178 19.7988 22.3852 19.9714 22.1332C20.1307 21.8996 20.2636 21.6489 20.3676 21.3857C20.5654 21.5619 20.7924 21.7021 21.0383 21.7998C21.1477 21.833 21.2055 21.8765 21.2096 21.9303C21.2138 21.9841 21.158 22.0359 21.0569 22.069H21.0672Z" fill="white"/>
<path d="M27.1073 22.6629H25.997C25.6813 22.6629 25.4027 22.6629 25.1591 22.6629L24.5111 22.6836L23.9601 22.7022V22.0811C24.1665 22.0935 24.3728 22.1038 24.5792 22.11L25.318 22.1307C25.5946 22.1307 25.9248 22.1411 26.3066 22.1411H29.1566C29.5384 22.1411 29.8562 22.1411 30.108 22.1307L30.7581 22.1162C30.9376 22.1162 31.1296 22.1038 31.336 22.0893V22.7105C31.1296 22.6981 30.9583 22.6877 30.7973 22.6815L30.1968 22.6608C29.9594 22.6608 29.6581 22.6608 29.2949 22.6608H27.8503C27.842 23.1577 27.8234 23.6111 27.7945 24.0211C27.7657 24.4311 27.7216 24.8182 27.6625 25.1827H29.0555C29.4476 25.1827 29.7861 25.1827 30.0729 25.1827H30.8035C31.0099 25.1827 31.1853 25.1827 31.3442 25.1827C31.5031 25.1827 31.6414 25.1827 31.757 25.1682L32.1429 25.1475V25.7686L31.6641 25.7438C31.4907 25.7334 31.2802 25.7272 31.0305 25.7231H30.1452C29.8046 25.7231 29.394 25.7231 28.9172 25.7231V28.7356C28.9137 28.8533 28.929 28.9707 28.9626 29.0835C28.9815 29.13 29.0095 29.1724 29.045 29.2079C29.0804 29.2435 29.1226 29.2716 29.169 29.2905C29.3264 29.3553 29.4942 29.3911 29.6643 29.3961C29.8831 29.4127 30.1844 29.4168 30.5662 29.4106C30.7926 29.4079 31.0187 29.3913 31.2431 29.3609C31.3987 29.3439 31.547 29.2852 31.6723 29.1911C31.7858 29.0926 31.8682 28.9631 31.9097 28.8184C31.9685 28.6054 32.0052 28.3869 32.0191 28.1662C32.1212 28.277 32.2448 28.3658 32.3823 28.4271C32.5213 28.4806 32.665 28.5208 32.8115 28.5472C32.6939 28.8681 32.5907 29.1249 32.502 29.3154C32.4273 29.4906 32.3059 29.6418 32.1511 29.7522C31.9748 29.8635 31.7746 29.9309 31.5671 29.9489C31.2346 29.9831 30.9004 29.9983 30.5662 29.9945C30.0516 29.9945 29.6389 29.9841 29.3279 29.9634C29.089 29.9555 28.8523 29.9151 28.6242 29.8433C28.4918 29.8074 28.379 29.7203 28.3105 29.6011C28.258 29.4776 28.2333 29.344 28.2383 29.2098V25.6961H27.5696C27.4676 26.1979 27.3033 26.6848 27.0805 27.1455C26.8708 27.5655 26.6041 27.9543 26.288 28.3008C25.9428 28.6754 25.5589 29.012 25.1426 29.305C24.6982 29.6239 24.183 29.9538 23.5969 30.2947C23.514 30.1614 23.4077 30.0442 23.2832 29.9489C23.1628 29.864 23.0267 29.8041 22.8828 29.7729C23.4254 29.5568 23.9511 29.3 24.4554 29.0048C24.8826 28.7553 25.2783 28.455 25.6338 28.1103C25.9576 27.7933 26.2318 27.4289 26.4469 27.0295C26.67 26.6093 26.8332 26.1598 26.9319 25.6941C26.4173 25.6941 25.9695 25.6941 25.5884 25.6941H24.5772C24.2841 25.6941 24.0303 25.6941 23.8177 25.7127L23.246 25.7376V25.1164C23.5907 25.135 24.0715 25.1516 24.6659 25.1599C25.2603 25.1682 26.0507 25.1764 27.0206 25.1764C27.1334 24.3436 27.1624 23.5015 27.1073 22.6629V22.6629Z" fill="white"/>
<path d="M37.3418 27.1924C37.3452 27.3916 37.3174 27.59 37.2592 27.7804C37.2026 27.9525 37.104 28.1077 36.9723 28.2318C36.8165 28.3745 36.6332 28.4837 36.4337 28.5527C36.161 28.6488 35.8787 28.7148 35.5917 28.7494C35.573 28.6152 35.534 28.4847 35.4761 28.3623C35.4206 28.233 35.3514 28.1102 35.2697 27.9958C35.7981 28.0165 36.1695 27.9585 36.3862 27.826C36.4965 27.7522 36.5849 27.6501 36.6423 27.5302C36.6997 27.4104 36.7238 27.2772 36.7123 27.1448C36.7088 26.9978 36.6845 26.8521 36.6401 26.7121C36.5854 26.5353 36.5113 26.3652 36.4193 26.2048C36.3111 26.0136 36.1838 25.834 36.0395 25.6685C35.8778 25.4794 35.6974 25.3074 35.5009 25.1551C35.7362 24.6388 35.9377 24.1557 36.1056 23.7057C36.2643 23.2878 36.4021 22.8621 36.5183 22.4303H34.8776V29.1097C34.8776 29.3167 34.8776 29.4865 34.8776 29.6418C34.8776 29.7971 34.8941 29.9379 34.9065 30.0683C34.9189 30.1988 34.9292 30.3479 34.9437 30.5156H34.1182C34.1388 30.3334 34.1574 30.1636 34.1718 30.0021C34.1863 29.8406 34.1987 29.677 34.2048 29.5052C34.211 29.3333 34.2172 29.1573 34.2214 28.973C34.2255 28.7888 34.2214 28.5838 34.2214 28.3519V23.2109C34.2214 23.1115 34.2214 23.0038 34.2214 22.8837C34.2214 22.7636 34.2214 22.6498 34.2048 22.5338C34.1883 22.4179 34.1883 22.3019 34.178 22.1922C34.1677 22.0824 34.1574 21.9851 34.1512 21.8961C34.4071 21.9085 34.6733 21.9189 34.9478 21.9251C35.2223 21.9313 35.4885 21.9354 35.7465 21.9354C36.0395 21.9354 36.3243 21.9354 36.5988 21.9209C36.8733 21.9064 37.1209 21.8982 37.3418 21.8857C37.2613 22.159 37.1725 22.4386 37.0776 22.7139C36.9827 22.9893 36.8836 23.275 36.7866 23.5525C36.6896 23.8299 36.5802 24.1012 36.4832 24.3621C36.3862 24.6229 36.2769 24.8631 36.186 25.0847C36.369 25.2045 36.5337 25.3503 36.6752 25.5174C36.8161 25.6803 36.938 25.8588 37.0384 26.0495C37.1367 26.2321 37.2122 26.4261 37.2633 26.6272C37.3134 26.8115 37.3398 27.0014 37.3418 27.1924V27.1924ZM40.9616 27.5589C41.234 27.3974 41.4589 27.2587 41.6385 27.1448C41.818 27.0309 41.9769 26.9191 42.1173 26.8197C42.2576 26.7203 42.3856 26.6127 42.5011 26.5133C42.6167 26.4139 42.7509 26.2855 42.8974 26.1468C43.0335 26.3595 43.2094 26.5437 43.4154 26.6893C43.4959 26.7411 43.5248 26.7887 43.5041 26.828C43.4835 26.8674 43.4216 26.886 43.3266 26.8798C43.2634 26.8826 43.2008 26.8945 43.1409 26.915C43.0204 26.9548 42.9042 27.0068 42.7942 27.0703C42.6442 27.1503 42.4482 27.2621 42.206 27.4057C41.9639 27.5492 41.6557 27.7383 41.2815 27.973C41.4363 28.1604 41.6053 28.3355 41.7871 28.4968C41.9529 28.6419 42.1295 28.7741 42.3154 28.8923C42.505 29.0114 42.7014 29.1193 42.9036 29.2153C43.1113 29.3147 43.3445 29.4182 43.6032 29.5259C43.467 29.6099 43.3397 29.7077 43.2235 29.8178C43.1192 29.9132 43.0314 30.0251 42.9634 30.1491C42.5336 29.9105 42.1284 29.6296 41.7541 29.3105C41.4169 29.02 41.1043 28.7022 40.8192 28.3602C40.6949 28.209 40.5804 28.05 40.4766 27.884C40.3554 27.693 40.2451 27.4953 40.1464 27.2918C40.0453 27.0848 39.9503 26.8653 39.8657 26.6437C39.785 26.4338 39.7161 26.2196 39.6593 26.0019H38.5697V29.4762L40.5158 28.5527C40.5148 28.6522 40.5245 28.7515 40.5447 28.8488C40.568 28.9464 40.5991 29.0419 40.6376 29.1345L38.8545 29.9793C38.6849 30.0586 38.5208 30.1493 38.3633 30.2505C38.259 30.3185 38.1596 30.3939 38.0661 30.4762C38.0095 30.3652 37.9356 30.2639 37.8474 30.176C37.7479 30.0806 37.6409 29.9933 37.5275 29.9151C37.6573 29.8311 37.7632 29.7148 37.835 29.5776C37.9092 29.4054 37.9431 29.2184 37.934 29.031V22.9831C37.934 22.7761 37.934 22.5897 37.9175 22.422C37.9064 22.2499 37.8864 22.0785 37.8577 21.9085C37.9609 21.923 38.0971 21.9354 38.2704 21.9499C38.4438 21.9644 38.6295 21.9748 38.838 21.9851C39.0464 21.9955 39.2693 22.0038 39.5046 22.01C39.7398 22.0162 39.973 22.0203 40.2083 22.0203C40.4436 22.0203 40.6788 22.0203 40.9182 22.01C41.1576 21.9996 41.3805 21.9955 41.589 21.9851C41.7974 21.9748 41.9873 21.9624 42.1544 21.9499C42.3216 21.9375 42.4599 21.923 42.5672 21.9085C42.5527 21.9955 42.5404 22.07 42.5342 22.1301C42.528 22.1901 42.5218 22.2564 42.5176 22.3371C42.5135 22.4179 42.5176 22.4924 42.5176 22.5918V24.8321C42.5176 25.0805 42.5176 25.3 42.5342 25.4905C42.5507 25.681 42.561 25.8797 42.5837 26.0868C42.4743 26.0744 42.3608 26.0619 42.2432 26.0537C42.1255 26.0454 41.9852 26.035 41.8304 26.0329L41.2113 26.0226C40.9678 26.0226 40.6685 26.0226 40.3074 26.0226C40.3615 26.3084 40.4502 26.5865 40.5715 26.8508C40.6835 27.0964 40.8139 27.3331 40.9616 27.5589V27.5589ZM38.5697 22.5317V23.832H41.8593V22.5359L38.5697 22.5317ZM38.5697 24.2999V25.5257H41.8593V24.2999H38.5697Z" fill="white"/>
<path d="M54.1617 22.9443V24.0873H51.3426V26.1453H53.7035V27.2882H51.3426V30.2097H49.8979V22.9443H54.1617Z" fill="white"/>
<path d="M58.0829 29.0502C58.3153 29.0537 58.5461 29.0107 58.7619 28.9239C58.9533 28.8441 59.1246 28.7224 59.2634 28.5678C59.4048 28.4056 59.5115 28.2161 59.577 28.0108C59.6523 27.774 59.6892 27.5265 59.6864 27.2779V22.9443H61.1145V27.2779C61.1202 27.6902 61.0502 28.1001 60.9082 28.4871C60.7765 28.8467 60.5694 29.1738 60.301 29.4463C60.0326 29.7189 59.709 29.9305 59.3521 30.0668C58.5341 30.3644 57.6379 30.3644 56.8199 30.0668C56.462 29.9313 56.1375 29.7201 55.8682 29.4475C55.599 29.1749 55.3915 28.8473 55.2597 28.4871C55.1176 28.1001 55.0476 27.6902 55.0533 27.2779V22.9443H56.4876V27.2779C56.4848 27.5265 56.5217 27.774 56.597 28.0108C56.6625 28.2161 56.7692 28.4056 56.9107 28.5678C57.0494 28.7224 57.2207 28.8441 57.4122 28.9239C57.6253 29.0097 57.8532 29.0526 58.0829 29.0502V29.0502Z" fill="white"/>
<path d="M63.2995 22.9526C63.3401 22.9577 63.3798 22.9689 63.4172 22.9857C63.4535 23.0032 63.487 23.0262 63.5162 23.0541C63.5536 23.0905 63.5888 23.1292 63.6215 23.17L67.1876 27.8845C67.1649 27.6444 67.1546 27.4166 67.1546 27.2013V22.9443H68.4135V30.2097H67.6788C67.5819 30.2136 67.4856 30.1937 67.3981 30.1517C67.3126 30.1046 67.2374 30.0405 67.1773 29.9633L63.6215 25.2819C63.6427 25.4883 63.6537 25.6956 63.6545 25.9031V30.2097H62.3894V22.9443H63.1427C63.2046 22.9443 63.2562 22.9485 63.2995 22.9526Z" fill="white"/>
<path d="M77.0337 22.9443V24.1162H75.0814V30.2097H73.6532V24.1162H71.7009V22.9443H77.0337Z" fill="white"/>
<path d="M84.1294 26.5707C84.1337 27.0752 84.0485 27.5765 83.8776 28.0511C83.721 28.4875 83.4789 28.8881 83.1656 29.2292C82.8545 29.563 82.4769 29.8275 82.0574 30.0056C81.1307 30.3812 80.0948 30.3812 79.1681 30.0056C78.7471 29.8281 78.368 29.5636 78.0558 29.2292C77.7406 28.8884 77.4964 28.4878 77.3376 28.0511C76.9991 27.0955 76.9991 26.0521 77.3376 25.0965C77.4959 24.6601 77.7402 24.2601 78.0558 23.9204C78.3686 23.5867 78.7475 23.3222 79.1681 23.144C80.0943 22.7658 81.1312 22.7658 82.0574 23.144C82.477 23.3228 82.8546 23.588 83.1656 23.9225C83.4778 24.2637 83.7197 24.6633 83.8776 25.0985C84.0483 25.5703 84.1336 26.0688 84.1294 26.5707V26.5707ZM82.6683 26.5707C82.6728 26.2204 82.6248 25.8714 82.5259 25.5354C82.44 25.2502 82.2999 24.9844 82.1131 24.7528C81.9436 24.5354 81.725 24.3615 81.4754 24.2455C81.2029 24.1321 80.9108 24.0737 80.6158 24.0737C80.3209 24.0737 80.0288 24.1321 79.7563 24.2455C79.5048 24.3565 79.2834 24.5262 79.1103 24.7403C78.9228 24.9714 78.7825 25.2374 78.6976 25.523C78.5987 25.859 78.5507 26.2079 78.5552 26.5582C78.5503 26.9126 78.5983 27.2658 78.6976 27.6059C78.7816 27.8918 78.922 28.158 79.1103 28.3885C79.2842 28.6003 79.5056 28.7677 79.7563 28.8772C80.3072 29.1033 80.9245 29.1033 81.4754 28.8772C81.7252 28.7671 81.9457 28.5997 82.1193 28.3885C82.3069 28.1575 82.4472 27.8915 82.532 27.6059C82.628 27.2694 82.6739 26.9206 82.6683 26.5707Z" fill="white"/>
<path d="M93.6923 26.5703C93.6975 27.0709 93.6122 27.5682 93.4406 28.0383C93.2848 28.4671 93.0424 28.859 92.7286 29.1895C92.4156 29.5145 92.038 29.7698 91.6203 29.939C91.1613 30.1239 90.6703 30.2154 90.1757 30.2081H87.5403V22.9428H90.1798C90.6744 22.9356 91.1654 23.0271 91.6244 23.2119C92.0421 23.3811 92.4197 23.6365 92.7327 23.9615C93.0459 24.2916 93.2883 24.6827 93.4447 25.1106C93.6148 25.5781 93.6987 26.0727 93.6923 26.5703V26.5703ZM92.2353 26.5703C92.2398 26.22 92.1918 25.871 92.0929 25.535C92.0081 25.2494 91.8678 24.9835 91.6802 24.7524C91.5063 24.5392 91.2851 24.3697 91.0342 24.2575C90.762 24.1399 90.468 24.0813 90.1716 24.0857H88.9725V29.0694H90.1716C90.4677 29.0733 90.7615 29.0155 91.0342 28.8996C91.2849 28.7882 91.5062 28.6194 91.6802 28.4068C91.8682 28.1753 92.0085 27.9085 92.0929 27.6221C92.1899 27.2802 92.2351 26.9257 92.2271 26.5703H92.2353Z" fill="white"/>
<path d="M96.0303 27.4134V30.2085H94.5857V22.9432H96.7671C97.1853 22.9352 97.6024 22.9882 98.0053 23.1005C98.3143 23.1853 98.6024 23.3333 98.8515 23.5353C99.0667 23.7124 99.2329 23.942 99.3344 24.202C99.4393 24.474 99.4911 24.7635 99.4871 25.0551C99.4881 25.2836 99.4554 25.5111 99.3901 25.7301C99.3266 25.9396 99.2297 26.1375 99.1033 26.316C98.9747 26.4954 98.8195 26.6539 98.643 26.786C98.4546 26.9272 98.2458 27.0389 98.0239 27.1173C98.1156 27.1692 98.2014 27.231 98.2798 27.3016C98.365 27.3777 98.4399 27.4648 98.5027 27.5604L100.123 30.2085H98.8308C98.725 30.2122 98.62 30.1873 98.5271 30.1363C98.4341 30.0853 98.3565 30.0101 98.3025 29.9187L96.9817 27.6535C96.9378 27.5771 96.8753 27.513 96.8001 27.4672C96.71 27.4271 96.6117 27.4087 96.5132 27.4134H96.0303ZM96.0303 26.3905H96.7671C96.9718 26.3951 97.1758 26.3635 97.3697 26.2974C97.5239 26.2423 97.6647 26.1547 97.7825 26.0406C97.8919 25.9302 97.9752 25.7965 98.026 25.6493C98.0792 25.4898 98.1057 25.3226 98.1044 25.1545C98.1131 25.0023 98.0882 24.8501 98.0314 24.7087C97.9747 24.5674 97.8876 24.4403 97.7763 24.3366C97.4878 24.1219 97.1313 24.0196 96.7733 24.0488H96.0324L96.0303 26.3905Z" fill="white"/>
<path d="M102.442 30.2097H100.998V22.9443H102.442V30.2097Z" fill="white"/>
<path d="M103.216 22.9428H104.368C104.475 22.9383 104.581 22.9688 104.669 23.0298C104.748 23.0896 104.809 23.1697 104.846 23.2617L106.211 27.558C106.264 27.707 106.318 27.8685 106.374 28.0445C106.429 28.2205 106.479 28.4027 106.526 28.5911C106.566 28.3986 106.611 28.2122 106.658 28.0362C106.706 27.8602 106.762 27.6967 106.819 27.5476L108.177 23.27C108.21 23.1806 108.269 23.1033 108.347 23.0484C108.435 22.9826 108.542 22.9484 108.652 22.9511H109.808L107.158 30.2082H105.866L103.216 22.9428Z" fill="white"/>
<path d="M114.874 22.9443V24.0873H111.896V26.0087H114.214V27.1081H111.896V29.0668H114.878V30.2097H110.462V22.9443H114.874Z" fill="white"/>
<path d="M46.5367 20.4678H46.3938V32.0004H46.5367V20.4678Z" fill="white"/>
</svg>
