<svg width="122" height="32" viewBox="0 0 122 32" fill="none" xmlns="http://www.w3.org/2000/svg">
<path d="M14.73 17.3522V23.1202H15.752V18.2202H22.276V23.0922H23.354V17.3522H14.73ZM15.318 19.5362V20.3482H22.668V19.5362H15.318ZM14.198 11.4022V12.2562H18.664V11.4022H14.198ZM12.686 13.6002V14.4542H19.028V13.6002H12.686ZM15.318 21.7342V22.6022H22.668V21.7342H15.318ZM15.598 11.7102V13.0822C15.598 14.1882 15.388 15.8262 12.56 16.9462C12.798 17.1142 13.092 17.4502 13.232 17.6602C16.2 16.3302 16.606 14.4542 16.606 13.0962V11.7102H15.598ZM14.268 10.1982C13.96 11.2622 13.4 12.3122 12.686 13.0262C12.924 13.1242 13.344 13.3902 13.526 13.5302C14.212 12.7602 14.856 11.5982 15.22 10.3942L14.268 10.1982ZM16.298 14.6642L15.612 15.1262C16.214 15.5042 17.67 16.5402 18.188 16.9742L18.916 16.2462C18.51 15.9662 16.802 14.9302 16.298 14.6642ZM20.596 12.3262H23.508V15.3082H20.596V12.3262ZM19.616 11.3882V16.2742H24.544V11.3882H19.616ZM29.92 19.8302V21.6502C29.92 22.6722 30.326 22.9382 31.894 22.9382C32.216 22.9382 34.61 22.9382 34.96 22.9382C36.192 22.9382 36.514 22.5742 36.654 21.0482C36.36 20.9922 35.94 20.8662 35.716 20.6982C35.646 21.8882 35.534 22.0422 34.876 22.0422C34.344 22.0422 32.328 22.0422 31.95 22.0422C31.096 22.0422 30.956 21.9862 30.956 21.6362V19.8302H29.92ZM31.992 19.8162C32.678 20.2362 33.476 20.8802 33.854 21.3422L34.526 20.7262C34.134 20.2782 33.322 19.6762 32.636 19.2842L31.992 19.8162ZM36.822 20.0822C37.41 20.9082 38.026 22.0142 38.278 22.7282L39.272 22.3922C39.034 21.6782 38.376 20.6002 37.788 19.8022L36.822 20.0822ZM28.17 19.9282C27.918 20.6842 27.47 21.6642 26.966 22.2522L27.876 22.7702C28.38 22.1122 28.772 21.0902 29.066 20.3062L28.17 19.9282ZM28.03 15.3782V16.1202H36.724V18.5002H27.946V19.2282H37.76V15.3782H28.03ZM28.464 16.9322V17.6182H37.074V16.9322H28.464ZM27.092 10.9822V11.6822H32.3V10.9822H27.092ZM27.4 12.3542V13.0542H32.118V12.3542H27.4ZM29.332 10.2542V15.1682H30.312V10.2542H29.332ZM33.168 10.9822V11.6822H38.74V10.9822H33.168ZM33.028 13.7542V14.4542H38.992V13.7542H33.028ZM33.476 12.3542V13.0542H38.502V12.3542H33.476ZM35.408 10.2542V15.1682H36.402V10.2542H35.408ZM26.924 13.7262V14.4262H32.482V13.7262H26.924ZM45.306 11.1222V12.1162H52.362V11.1222H45.306ZM44.382 14.3282V15.3222H53.356V14.3282H44.382ZM49.618 16.3582C50.486 17.7442 51.578 19.6202 52.082 20.7122L53.02 20.2082C52.474 19.1582 51.354 17.3242 50.5 15.9662L49.618 16.3582ZM43.528 15.1402H40.574V16.1342H42.506V20.9222H43.528V15.1402ZM40.952 11.6682C41.764 12.2422 42.87 13.0682 43.43 13.5582L44.144 12.7882C43.57 12.2982 42.45 11.5422 41.638 10.9962L40.952 11.6682ZM43.122 20.4462C42.394 20.4462 41.442 21.1882 40.518 22.2102L41.246 23.1762C41.946 22.2522 42.632 21.4262 43.108 21.4262C43.416 21.4262 43.92 21.8882 44.466 22.2382C45.46 22.8402 46.622 23.0082 48.344 23.0082C49.87 23.0082 52.25 22.9242 53.202 22.8682C53.23 22.5462 53.398 22.0142 53.538 21.7062C52.096 21.8742 49.968 21.9862 48.386 21.9862C46.818 21.9862 45.642 21.8882 44.69 21.3002C43.906 20.8102 43.57 20.4462 43.122 20.4462ZM45.25 20.3342C45.25 20.1102 45.95 19.7602 45.95 19.7602V19.7322C46.86 18.5702 47.826 16.8202 48.526 15.1822L47.392 14.8322C46.86 16.3862 45.922 18.0522 45.642 18.4722C45.348 18.9202 45.124 19.2282 44.872 19.2842C45.012 19.5642 45.194 20.1102 45.25 20.3342ZM45.25 20.3342C45.684 20.1662 46.328 20.1102 52.166 19.5782C52.11 19.3542 51.998 18.9482 51.956 18.6542L45.88 19.1162L45.222 19.4942L45.25 20.3342ZM58.34 16.2602H63.758V17.5202H58.34V16.2602ZM57.346 15.5042V18.2762H64.794V15.5042H57.346ZM56.366 19.1722V23.1622H57.374V20.0962H64.822V23.1342H65.872V19.1722H56.366ZM56.898 21.7482V22.6302H65.312V21.7482H56.898ZM55.246 13.7542V16.4842H56.226V14.5942H65.83V16.4842H66.852V13.7542H55.246ZM54.854 11.4162V12.3682H67.174V11.4162H54.854ZM57.948 10.2542V13.3622H58.97V10.2542H57.948ZM62.946 10.2542V13.3622H63.982V10.2542H62.946ZM68.434 17.8982L68.686 18.9342C69.862 18.5142 71.36 17.9682 72.788 17.4502L72.606 16.4982C71.08 17.0302 69.498 17.5902 68.434 17.8982ZM68.602 12.9702V13.9502H72.718V12.9702H68.602ZM70.296 10.2262V21.7762C70.296 21.9862 70.212 22.0422 70.044 22.0422C69.876 22.0422 69.344 22.0422 68.728 22.0282C68.868 22.3222 68.994 22.7562 69.036 23.0082C69.918 23.0082 70.464 22.9802 70.8 22.8122C71.136 22.6442 71.262 22.3642 71.262 21.7902V10.2262H70.296ZM73.782 17.2682V18.2202H80.488V17.2682H73.782ZM72.634 21.7202V22.6582H81.482V21.7202H72.634ZM73.124 11.9482V14.3842H74.09V12.8722H80.334V14.2442H81.342V11.9482H73.124ZM76.582 17.8282V22.2242H77.646V17.8282H76.582ZM76.218 10.4782C76.498 11.0662 76.834 11.8642 76.96 12.3682L77.996 12.0742C77.842 11.5842 77.506 10.8142 77.212 10.2402L76.218 10.4782ZM77.716 14.2722C78.612 15.0702 79.788 16.1902 80.362 16.8482L81.048 16.1622C80.446 15.5182 79.256 14.4542 78.36 13.6842L77.716 14.2722ZM75.84 13.6982C75.182 14.6222 74.16 15.5742 73.18 16.1902C73.376 16.3862 73.698 16.8062 73.824 16.9882C74.846 16.2602 75.994 15.1262 76.75 14.0342L75.84 13.6982ZM91.464 11.5282V19.2842H92.444V11.5282H91.464ZM93.956 10.3942V21.6782C93.956 21.9162 93.886 21.9722 93.662 21.9862C93.41 21.9862 92.626 21.9862 91.8 21.9582C91.94 22.2942 92.094 22.7702 92.15 23.0782C93.186 23.0782 93.956 23.0502 94.376 22.8682C94.81 22.6722 94.978 22.3642 94.978 21.6642V10.3942H93.956ZM86.046 10.2962V23.1202H87.04V10.2962H86.046ZM88.986 17.0862V20.9222C88.986 21.0622 88.944 21.1042 88.804 21.1042C88.636 21.1182 88.188 21.1182 87.586 21.1042C87.726 21.3702 87.852 21.7482 87.88 22.0142C88.664 22.0282 89.196 22.0142 89.532 21.8462C89.882 21.6782 89.952 21.4122 89.952 20.9362V17.0862H88.986ZM83.26 17.0862V21.9722H84.212V18.0382H89.378V17.0862H83.26ZM82.616 14.7062V15.6722H90.456V14.7062H82.616ZM83.974 12.2702L83.778 13.2362H89.896V12.2702H83.974ZM83.988 10.5762C83.694 11.9342 83.204 13.3342 82.574 14.2862C82.826 14.3702 83.288 14.5522 83.498 14.6642C84.086 13.7122 84.632 12.2282 84.968 10.7722L83.988 10.5762ZM100.536 11.6682V12.5922H109.384V11.6682H100.536ZM102.706 16.5962V17.4922H107.214V16.5962H102.706ZM102.482 21.6922V22.5882H107.606V21.6922H102.482ZM102.538 10.2822V13.9642H103.532V10.2822H102.538ZM106.36 10.2822V13.9642H107.34V10.2822H106.36ZM101.838 18.5422V23.1342H102.832V19.4382H107.186V23.1342H108.222V18.5422H101.838ZM96.728 13.6562V14.6502H100.718V13.6562H96.728ZM98.296 10.3942V19.7882H99.304V10.3942H98.296ZM96.504 20.1802L96.854 21.2582C98.03 20.7962 99.514 20.2082 100.928 19.6202L100.718 18.6682C99.178 19.2422 97.582 19.8442 96.504 20.1802ZM104.666 13.3342C103.7 14.5942 101.88 15.8962 99.962 16.7642C100.2 16.9462 100.55 17.3382 100.704 17.5622C102.678 16.5822 104.456 15.2102 105.618 13.6982L104.666 13.3342ZM105.114 13.8102L104.442 14.3562C105.38 15.2382 107.312 16.6522 108.908 17.4082C109.062 17.1562 109.398 16.7782 109.622 16.5962C107.984 15.9382 106.01 14.6642 105.114 13.8102Z" fill="white" fill-opacity="0.65"/>
<rect x="0.5" y="0.500244" width="121" height="31" stroke="white" stroke-opacity="0.3"/>
</svg>
